<svg width="100%" height="100%" viewBox="0 0 120 120" version="1.1" xmlns="http://www.w3.org/2000/svg" xmlns:xlink="http://www.w3.org/1999/xlink" xml:space="preserve" style="fill-rule:evenodd;clip-rule:evenodd;stroke-linejoin:round;stroke-miterlimit:2;">
  <rect x="0" y="-0" width="120" height="120" style="fill:none;" />
  <path d="M9.885,56.725c-2.935,0 -5.635,1.608 -7.033,4.188c-1.399,2.58 -1.272,5.719 0.33,8.179c2.035,2.965 4.125,6.843 6.076,10.982c2.97,6.302 5.663,13.149 7.488,18.462c0.936,2.759 2.083,7.117 4.068,10.201c1.595,2.479 3.611,4.384 6.038,5.381c2.205,0.906 5.011,1.228 8.067,0.812c3.706,-0.505 7.991,-2.125 10.634,-2.573c6.036,-0.974 12.386,-2.029 18.68,-2.06c3.903,-0.019 7.767,0.418 11.486,1.356l12.995,3.893c1.202,0.318 3.763,1.146 5.573,1.173c1.94,0.029 3.564,-0.635 4.874,-1.455c1.417,-0.891 2.717,-2.45 3.762,-4.525c1.163,-2.309 1.794,-6.147 2.556,-7.826c2.008,-4.484 3.528,-8.006 4.841,-11.977c1.162,-3.515 2.126,-7.384 3.254,-12.522l2.21,-11.943c0.467,-2.137 -0.012,-4.372 -1.315,-6.129c-1.303,-1.757 -3.302,-2.864 -5.482,-3.038l-15.181,-0.112l-37.968,3.337c-4.219,0.311 -8.434,0.628 -12.652,0.537c-1.83,-0.04 -3.652,-0.172 -5.472,-0.369c-9.376,-1.017 -18.451,-2.88 -27.829,-3.972Zm89.033,14.72l-4.949,-0.533l-37.692,-0.617c-4.413,0.071 -8.806,-0.179 -13.207,-0.197c-1.873,-0.007 -3.741,0.042 -5.612,0.144c-5.119,0.279 -10.174,0.679 -15.23,1.165c0.358,0.809 0.708,1.632 1.052,2.464c2.883,6.961 5.445,14.493 7.144,20.326c0.418,1.413 1.456,4.51 2.047,6.252c1.786,-2.173 8.519,-0.858 11.104,-1.199c6.646,-0.934 13.642,-1.724 20.551,-1.805c4.953,-0.059 9.867,0.229 14.624,1.257l12.393,2.833c0.085,-1.729 0.011,-3.679 0.302,-4.448c1.569,-4.094 2.671,-7.329 3.736,-10.906c0.94,-3.154 1.85,-6.575 2.831,-11.146l0.906,-3.59Z" style="fill:#533c97;" />
  <path d="M42.05,62.182c1.755,3.612 -0.623,2.38 -4.096,4.578c-3.731,2.361 -8.677,1.249 -11.038,-2.482c-0.631,-1.113 -1.182,-2.282 -1.426,-3.591c-0.269,-1.447 -0.299,-4.653 -0.299,-4.653c-0,0 0.109,0.235 0.142,0.355c-0.419,-1.479 -0.715,-3.018 -0.767,-4.61c-0.083,-2.513 0.254,-5.144 0.467,-7.502l1.926,-16.849c0.48,-3.48 0.959,-7.388 2.285,-10.829c1.163,-3.014 2.811,-5.761 5.369,-7.846c2.28,-1.881 4.937,-3.168 7.81,-3.928c3.561,-0.942 7.429,-1.154 10.93,-1.045c8.38,0.062 16.084,1.114 22.614,4.35c4.825,2.391 9.03,5.988 12.461,11.4c2.682,4.185 4.062,8.86 4.811,13.74c1.446,9.413 -0.198,19.789 0.17,28.436c0,4.415 -3.585,8 -8,8c-4.415,-0 -8,-3.585 -8,-8c0.309,-7.192 2.26,-15.483 2.351,-23.516c0.048,-4.243 -0.341,-8.42 -2.359,-12.118c-2.37,-4.257 -5.535,-6.917 -9.387,-8.415c-4.404,-1.713 -9.481,-2.139 -14.862,-2.278c-2.053,-0.011 -4.291,0.074 -6.412,0.551c-1.547,0.348 -3.013,0.957 -4.173,2.01c-1.084,0.998 -1.435,2.434 -1.758,3.856c-0.524,2.305 -0.576,4.763 -0.728,6.986l-0.504,16.165c-0.003,1.409 -0.08,2.939 -0.032,4.458c0.023,0.74 0.144,1.463 0.396,2.119c0.488,1.258 1.98,9.459 2.109,10.658Z" style="fill:#533c97;" />
</svg>