<svg width="100%" height="100%" viewBox="0 0 100 100" version="1.1" xmlns="http://www.w3.org/2000/svg" xmlns:xlink="http://www.w3.org/1999/xlink" xml:space="preserve" style="fill-rule:evenodd;clip-rule:evenodd;stroke-linejoin:round;stroke-miterlimit:2;">
  <rect x="0" y="0" width="100" height="100" style="fill:none;" />
  <path d="M80.835,7.596c-0.14,0.265 -0.618,-0.315 -0.931,-0.124c-0.904,0.554 -2.018,0.63 -3.04,1.081c-1.198,0.528 -2.158,1.207 -2.989,1.728l-20.164,14.956c-4.311,3.737 -8.34,7.697 -12.253,11.789c-5.599,5.857 -10.881,11.987 -16.428,17.963c-2.756,3.054 -5.839,5.99 -8.443,9.373c-2.702,3.511 -4.945,7.3 -7.094,11.162c-0.228,0.41 -0.551,0.769 -0.663,1.224c-0.657,2.652 -0.446,3.94 -0.079,6.617c0.418,3.049 0.635,3.23 1.468,6.154c-0.33,0.559 -0.143,1.281 0.416,1.611c0.559,0.329 1.281,0.143 1.61,-0.416c2.858,-0.663 3.142,-0.317 6.001,-1.117c2.381,-0.667 3.65,-0.515 5.77,-1.84c0.344,-0.216 0.574,-0.557 0.856,-0.851c2.765,-2.871 5.787,-5.434 8.501,-8.366c2.847,-3.076 5.302,-6.446 7.871,-9.562l24.994,-30.552l16.409,-18.797c1.01,-1.58 2.973,-3.502 4.091,-5.628c0.943,-1.794 1.931,-3.221 1.787,-4.849c0.429,-2.122 -0.945,-4.193 -3.067,-4.623c-2.122,-0.429 -4.194,0.945 -4.623,3.067Z" style="fill:#4f3d2f;" />
  <path d="M12.007,16.273l12.313,25.603c3.778,5.591 7.619,11.196 12.137,16.356c6.62,7.561 14.072,14.519 21.927,20.791c1.582,1.263 3.132,2.539 4.881,3.542c2.831,1.624 5.327,3.318 8.526,3.8c4.282,0.644 4.704,-0.443 8.967,-0.948c0.708,0.575 1.75,0.467 2.324,-0.241c0.575,-0.709 0.467,-1.75 -0.242,-2.325c-0.495,-4.499 0.625,-5.365 -0.93,-9.662c-0.828,-2.289 -2.381,-3.959 -3.903,-5.881c-2.024,-2.554 -4.303,-4.853 -6.589,-7.206c-5.219,-5.369 -10.486,-10.731 -15.763,-16.039c-5.054,-5.085 -10.33,-9.828 -15.06,-15.046l-19.058,-20.479c-2.135,-2.63 -6.003,-3.032 -8.633,-0.897c-2.63,2.134 -3.032,6.002 -0.897,8.632Z" style="fill:#4f3d2f;" />
</svg>